<?xml version="1.0" encoding="UTF-8" standalone="no"?>
<!DOCTYPE svg PUBLIC "-//W3C//DTD SVG 1.1//EN" "http://www.w3.org/Graphics/SVG/1.1/DTD/svg11.dtd">
<svg width="100%" height="100%" viewBox="0 0 451 414" version="1.1" xmlns="http://www.w3.org/2000/svg" xmlns:xlink="http://www.w3.org/1999/xlink" xml:space="preserve" xmlns:serif="http://www.serif.com/" style="fill-rule:evenodd;clip-rule:evenodd;stroke-linejoin:round;stroke-miterlimit:2;">
    <g transform="matrix(1,0,0,1,-797.834,-2208.66)">
        <g>
            <path d="M1022.87,2622.05L797.834,2492.13L797.834,2208.66L1022.87,2338.58L1247.89,2208.66L1247.89,2492.13L1022.87,2622.05Z" style="fill:white;"/>
            <g transform="matrix(1,0,0,-1,-409.146,3779.52)">
                <path d="M1432.01,1299.21L1534.3,1240.16L1636.58,1299.21L1636.58,1417.32L1534.3,1476.38L1432.01,1417.32L1432.01,1299.21Z"/>
            </g>
            <g transform="matrix(1,0,0,-1,-409.146,3779.52)">
                <path d="M1534.27,1287.38L1595.67,1322.84L1595.67,1393.7L1534.3,1429.13L1472.92,1393.7L1472.9,1322.82L1534.27,1287.38Z" style="fill:white;"/>
            </g>
            <g transform="matrix(1,0,0,-1,204.573,4842.52)">
                <path d="M941.035,2551.18L1022.87,2503.94L1022.87,2598.43L941.035,2551.18Z"/>
            </g>
            <g transform="matrix(1,0,0,-1,204.573,4842.52)">
                <path d="M818.292,2244.09L900.121,2291.34L818.292,2338.58L818.292,2244.09Z"/>
            </g>
            <g transform="matrix(1,0,0,1,-613.719,1062.99)">
                <path d="M1432.01,1299.21L1534.3,1240.16L1636.58,1299.21L1636.58,1417.32L1534.3,1476.38L1432.01,1417.32L1432.01,1299.21Z"/>
            </g>
            <g transform="matrix(1,0,0,1,-613.719,1062.99)">
                <path d="M1534.27,1287.38L1595.67,1322.84L1595.67,1393.7L1534.3,1429.13L1472.92,1393.7L1472.9,1322.82L1534.27,1287.38Z" style="fill:white;"/>
            </g>
            <path d="M941.035,2551.18L1022.87,2503.94L1022.87,2598.43L941.035,2551.18Z"/>
            <path d="M818.292,2244.09L900.121,2291.34L818.292,2338.58L818.292,2244.09Z"/>
        </g>
    </g>
</svg>
